<svg id="Layer_1" data-name="Layer 1" xmlns="http://www.w3.org/2000/svg" viewBox="0 0 87.56 10.63"><defs><style>.cls-1{fill:#474748;}</style></defs><title>kerawang 1</title><path class="cls-1" d="M69.13,10.61s-.16,0-.19,0l-.68,0a9,9,0,0,1-1.61-.25,5.43,5.43,0,0,1-2-1,6.76,6.76,0,0,1-.94-.92A2.46,2.46,0,0,0,63,7.72c-1.91-1-3.33,1-4.71,2a2.31,2.31,0,0,0,.23-2.14,1.76,1.76,0,0,0-1.52-1c-.69,0-1.45.51-1.31,1.27.11.59.89,1.06,1.4.6.17-.15.4-.75,0-.75s-.14.48-.5.47a.51.51,0,0,1-.4-.7A.79.79,0,0,1,56.86,7a1.33,1.33,0,0,1,1.31,1.11,2,2,0,0,1-1.9,2.24A3.16,3.16,0,0,1,53,7.58a4.26,4.26,0,0,1,0-1.13.62.62,0,1,0-.46-.06,4.5,4.5,0,0,1-.25,1c-1,2.48-4.31,3.92-6.52,2.08a3.48,3.48,0,0,1-1.16-3.61,2.82,2.82,0,0,1,3.12-1.92A2.15,2.15,0,0,1,49.18,7a1.72,1.72,0,0,1-1.65.82,1.35,1.35,0,0,1-1.16-1.32,1,1,0,0,1,.45-.85.64.64,0,0,0,.68.53,1,1,0,0,0,1-.71s0,0,0,0l0,0a.31.31,0,0,1-.27.12c-.27,0-.32-.48-.78-.54a1.24,1.24,0,0,0-.66.11,1.49,1.49,0,0,0-.68.61,1.68,1.68,0,0,0,.21,1.89,1.85,1.85,0,0,0,1.82.6,2.27,2.27,0,0,0,1.54-3.15,2.75,2.75,0,0,0-3.25-1.55A3.31,3.31,0,0,0,44,6.34,4,4,0,0,0,45.5,9.88c2.37,1.84,5.86.48,7-2.09a3.8,3.8,0,0,0,1.83,2.58,4,4,0,0,0,2.92.27,5.45,5.45,0,0,0,2.09-1.25A4.7,4.7,0,0,1,61.6,8a1.54,1.54,0,0,1,1.83,1,1.25,1.25,0,0,1-.07,1,.86.86,0,0,1-1,.36.48.48,0,0,1-.31-.46.23.23,0,0,1,.27-.24c.18,0,.11.21.23.3s.36,0,.36-.23a.54.54,0,0,0-.24-.41.7.7,0,0,0-.92.11.85.85,0,0,0,0,1,1,1,0,0,0,1,.4,1.37,1.37,0,0,0,1.14-1.62,7.2,7.2,0,0,0,5.19,1.47C69.2,10.69,69.14,10.63,69.13,10.61Z" transform="translate(-0.38 -0.41)"/><path class="cls-1" d="M44.33,6.34a3.31,3.31,0,0,0-2.47-2.83,2.75,2.75,0,0,0-3.25,1.55,2.27,2.27,0,0,0,1.54,3.15A1.85,1.85,0,0,0,42,7.61a1.68,1.68,0,0,0,.21-1.89,1.49,1.49,0,0,0-.68-.61A1.24,1.24,0,0,0,40.84,5c-.46.05-.51.54-.78.54a.31.31,0,0,1-.27-.12l0,0s0,0,0,0a1,1,0,0,0,1,.71.65.65,0,0,0,.68-.53,1,1,0,0,1,.45.85,1.34,1.34,0,0,1-1.16,1.32A1.72,1.72,0,0,1,39.11,7a2.15,2.15,0,0,1,1.53-3.06,2.82,2.82,0,0,1,3.12,1.92A3.48,3.48,0,0,1,42.6,9.45c-2.21,1.83-5.56.4-6.52-2.08a4.51,4.51,0,0,1-.26-1h0a.62.62,0,1,0-.45.1,4.25,4.25,0,0,1,0,1.12A3.16,3.16,0,0,1,32,10.31a2,2,0,0,1-1.9-2.24A1.33,1.33,0,0,1,31.44,7a.79.79,0,0,1,.73.44.51.51,0,0,1-.4.7c-.36,0-.17-.47-.5-.47s-.18.6,0,.75c.51.46,1.28,0,1.4-.6C32.8,7,32,6.48,31.34,6.51a1.76,1.76,0,0,0-1.52,1A2.31,2.31,0,0,0,30,9.68c-1.38-.92-2.8-2.94-4.71-2a2.46,2.46,0,0,0-.74.69,6.77,6.77,0,0,1-.94.92,5.43,5.43,0,0,1-2,1,9,9,0,0,1-1.61.25l-.68,0s-.17,0-.19,0-.07.07,0,.07a7.2,7.2,0,0,0,5.19-1.47,1.37,1.37,0,0,0,1.14,1.62,1,1,0,0,0,1-.4.85.85,0,0,0,0-1,.7.7,0,0,0-.92-.11.54.54,0,0,0-.24.41c0,.19.18.36.36.23s.06-.26.23-.3a.23.23,0,0,1,.27.24.48.48,0,0,1-.31.46.86.86,0,0,1-1-.36,1.25,1.25,0,0,1-.07-1,1.54,1.54,0,0,1,1.83-1,4.7,4.7,0,0,1,2.24,1.42A5.45,5.45,0,0,0,31,10.64a4,4,0,0,0,2.92-.27,3.8,3.8,0,0,0,1.83-2.58c1.16,2.57,4.66,3.93,7,2.09A4,4,0,0,0,44.33,6.34Z" transform="translate(-0.38 -0.41)"/><path class="cls-1" d="M28.83,11,.38,10.78l28.45-.26a.26.26,0,1,1,0,.52Z" transform="translate(-0.38 -0.41)"/><path class="cls-1" d="M87.94,10.78,59.49,11a.26.26,0,1,1,0-.52h0Z" transform="translate(-0.38 -0.41)"/><path class="cls-1" d="M44.9,2.46a1.11,1.11,0,0,0-.76.17,1.11,1.11,0,0,0-.76-.17s0,0,0,0l0,0c.11,0,.42.09.46.22a.59.59,0,0,1,0,.32.37.37,0,0,0-.27.11.65.65,0,0,0,.25,1c.1.05.21.42.32.41s.22-.36.32-.41a.65.65,0,0,0,.25-1s-.08-.11-.27-.11a.59.59,0,0,1,0-.32c0-.13.36-.2.46-.22l0,0S44.94,2.46,44.9,2.46Z" transform="translate(-0.38 -0.41)"/><path class="cls-1" d="M44.54,1.7a7.31,7.31,0,0,0-.4-1.29,7.31,7.31,0,0,0-.4,1.29.41.41,0,1,0,.8,0Z" transform="translate(-0.38 -0.41)"/><path class="cls-1" d="M45.8,2.71a8.17,8.17,0,0,0-.59.91A8.18,8.18,0,0,0,46.12,3c.16-.16.22-.36.13-.45S46,2.55,45.8,2.71Z" transform="translate(-0.38 -0.41)"/><path class="cls-1" d="M42.49,2.71a8.18,8.18,0,0,1,.59.91A8.19,8.19,0,0,1,42.17,3C42,2.87,42,2.67,42,2.58S42.33,2.55,42.49,2.71Z" transform="translate(-0.38 -0.41)"/><path class="cls-1" d="M45,1.8a4.25,4.25,0,0,0-.31.47A4.24,4.24,0,0,0,45.17,2c.08-.08.11-.19.07-.24S45.09,1.72,45,1.8Z" transform="translate(-0.38 -0.41)"/><path class="cls-1" d="M43.29,1.8a4.25,4.25,0,0,1,.31.47A4.25,4.25,0,0,1,43.12,2c-.08-.08-.11-.19-.07-.24S43.2,1.72,43.29,1.8Z" transform="translate(-0.38 -0.41)"/><path class="cls-1" d="M45.33,2.27a5.87,5.87,0,0,0-.43.66,5.86,5.86,0,0,0,.66-.43c.12-.12.16-.26.1-.32S45.45,2.16,45.33,2.27Z" transform="translate(-0.38 -0.41)"/><path class="cls-1" d="M43,2.27a5.86,5.86,0,0,1,.43.66,5.86,5.86,0,0,1-.66-.43c-.12-.12-.16-.26-.1-.32S42.84,2.16,43,2.27Z" transform="translate(-0.38 -0.41)"/></svg>