<?xml version="1.0" encoding="utf-8"?>
<!-- Generator: Adobe Illustrator 21.1.0, SVG Export Plug-In . SVG Version: 6.00 Build 0)  -->
<svg version="1.1" id="Layer_1" xmlns="http://www.w3.org/2000/svg" xmlns:xlink="http://www.w3.org/1999/xlink" x="0px" y="0px"
	 viewBox="0 0 87.6 9.9" style="enable-background:new 0 0 87.6 9.9;" xml:space="preserve">
<title>kerawang 3</title>
<path d="M21.6,8.2c1.1-0.1,2.2-0.6,2.8-1.6c0,0.8,0.5,1.5,1.3,1.7c0.7,0.2,1.5-0.2,1.7-0.9c0.1-0.2,0.1-0.5-0.1-0.8
	c-0.1-0.2-0.1-0.2,0-0.4s0.2-0.1,0-0.1c-0.3,0-0.6,0.2-0.6,0.5c-0.1,0.3,0.1,0.7,0.5,0.6c-0.3,0.5-0.9,0.8-1.5,0.5
	C25,7.6,24.7,7,24.8,6.4c0.1-1.4,1.9-2,3.1-1.9c0.7,0,1.4,0.2,2.1,0.5c0.7,0.3,1.3,0.7,1.9,1.1c1.2,0.7,2.5,1.1,3.9,1.1
	c1.4,0.2,2.9-0.1,4.1-0.7c-0.4,0.8-0.4,1.7,0.1,2.5c0.4,0.7,1.3,1.1,2.1,0.8c0.7-0.2,1.2-1,1-1.7c0,0,0-0.1,0-0.1
	c-0.1-0.4-0.5-0.6-0.9-0.6c-0.4,0-0.5,0.2-0.7,0.6c0,0.1-0.1,0.1-0.2,0.2c-0.1,0-0.1,0-0.2,0c-0.1,0.1,0.2,0.3,0.3,0.3
	c0.4,0.1,1,0,1-0.5c0.3,0.2,0.4,0.7,0.2,1c-0.2,0.3-0.5,0.5-0.9,0.6C41,9.6,40.3,9,40.2,8.2c0,0,0,0,0,0c-0.1-0.8,0.2-1.7,0.8-2.2
	c0.7-0.5,1.3-1.2,1.8-1.9c0.4-0.7,0.8-1.4,1-2.2C43.9,1.5,44,1.1,44,0.7c0-0.1,0-0.3-0.1-0.4c-0.1-0.1-0.2,0-0.3,0.1c0,0,0,0,0,0
	c-0.1,0.2-0.2,0.4-0.3,0.5c-0.2,0.4-0.5,0.8-0.8,1.1C41.6,3.2,40.4,4,39,4.3c0-0.3-0.2-0.6-0.5-0.6c-0.1,0-0.2,0-0.3,0.1
	C38,3.8,37.9,4,37.8,4c-0.1,0-0.2-0.1-0.3-0.2c-0.2,0.1,0.2,0.7,0.3,0.8c0.3,0.2,0.6,0.3,1,0.3c2-0.2,3.5-1.8,4.6-3.4
	c-0.7,3.3-4.2,6.3-7.8,5.3c-1.3-0.3-2.3-1.5-2.5-2.8c-0.2-1.4,0.5-3.1,2-3.4c0.8-0.2,1.6,0.2,2,0.9c0.2,0.4,0.2,0.8,0,1.1
	c-0.2,0.4-0.8,0.6-1.1,0.1c0.5-0.2,0.2-0.8-0.1-1c-0.1,0-0.4-0.2-0.5-0.1s0.1,0.1,0.1,0.1s0,0.2,0,0.3c-0.2,0.5,0,1.1,0.6,1.3
	c0.3,0.1,0.5,0.1,0.8,0c0.7-0.4,1-1.4,0.5-2.1c0,0,0-0.1-0.1-0.1C37,0.2,36.1-0.1,35.2,0c-1.1,0.2-1.9,1-2.2,2
	c-0.2-0.8-0.7-1.5-1.5-1.8c-0.8-0.3-1.7-0.2-2.4,0.2c-0.7,0.4-1,1.4-0.5,2.1c0,0,0,0,0,0c0.3,0.3,0.7,0.5,1.1,0.4
	c0.4-0.1,0.7-0.4,0.7-0.9c0-0.2-0.2-0.4-0.2-0.5s0.3-0.2,0-0.2s-0.9,0.8-0.4,1.1c-0.4,0.2-0.9-0.1-1-0.5c-0.1-0.4,0-0.8,0.3-1.1
	c0.5-0.6,1.4-0.7,2.1-0.5c0.6,0.2,1.1,0.7,1.3,1.4c0.2,0.8,0.3,1.6,0.3,2.4c0.2,0.9,0.8,1.8,1.7,2.3c-1.3-0.5-2.6-1.1-3.8-1.8
	c-1.2-0.7-2.6-0.9-4-0.7c-0.6,0.1-1.2,0.5-1.6,0.9c-0.4,0.4-0.7,1-1.1,1.4c-0.6,0.8-1.5,1.3-2.4,1.3c-0.6,0-1.1-0.4-1.2-1
	c-0.1-0.5,0.1-1.4,0.8-1.2c-0.4,0.3,0,0.9,0.3,1c0.1,0,0.4,0.2,0.5,0.1s-0.2-0.1-0.2-0.2s0.1-0.3,0.2-0.5c0-0.2-0.1-0.3-0.2-0.5
	c-0.2-0.3-0.6-0.4-0.9-0.3c-0.7,0.2-1.1,1-0.8,1.7c0,0,0,0.1,0,0.1C20.2,7.8,20.9,8.2,21.6,8.2z"/>
<path d="M65.9,8.2c-1.1-0.1-2.2-0.6-2.8-1.6c0,0.8-0.5,1.5-1.3,1.7c-0.7,0.2-1.5-0.2-1.7-0.9c-0.1-0.2-0.1-0.5,0.1-0.8
	c0.1-0.2,0.1-0.2,0-0.4s-0.2-0.1,0-0.1c0.3,0,0.6,0.2,0.7,0.5c0.1,0.3-0.1,0.7-0.5,0.6c0.3,0.5,0.9,0.8,1.5,0.5
	c0.6-0.3,0.9-0.9,0.8-1.5c-0.1-1.5-1.9-2-3.1-1.9c-0.7,0-1.4,0.2-2.1,0.5c-0.7,0.3-1.3,0.7-1.9,1.1c-1.2,0.7-2.5,1.1-3.9,1.2
	c-1.4,0.2-2.9-0.1-4.1-0.7C48,7.3,47.9,8.2,47.5,9c-0.4,0.7-1.3,1.1-2.1,0.8c-0.7-0.2-1.2-1-1-1.7c0,0,0-0.1,0-0.1
	c0.1-0.4,0.5-0.6,0.9-0.6c0.4,0,0.5,0.2,0.7,0.6c0,0.1,0.1,0.1,0.2,0.2c0.1,0,0.1,0,0.2,0c0.1,0.1-0.2,0.3-0.3,0.3
	c-0.4,0.1-1,0-1-0.5c-0.3,0.2-0.4,0.7-0.2,1c0.2,0.3,0.5,0.5,0.9,0.6c0.8,0.1,1.6-0.5,1.7-1.3c0,0,0,0,0,0c0.1-0.8-0.2-1.7-0.8-2.2
	c-0.7-0.5-1.3-1.2-1.8-1.9c-0.4-0.7-0.8-1.4-1-2.2c-0.1-0.4-0.1-0.7-0.2-1.1c0-0.1,0-0.3,0.1-0.4c0.1-0.1,0.2,0,0.3,0.1c0,0,0,0,0,0
	c0.1,0.2,0.2,0.4,0.3,0.5c0.2,0.4,0.5,0.8,0.8,1.1C46,3.2,47.2,4,48.6,4.3c0-0.3,0.2-0.6,0.5-0.6c0.1,0,0.2,0,0.3,0.1
	c0.1,0,0.2,0.1,0.3,0.1c0.1,0,0.2-0.1,0.3-0.2c0.2,0.1-0.2,0.7-0.3,0.8c-0.3,0.2-0.6,0.3-1,0.3c-2-0.2-3.5-1.8-4.6-3.4
	c0.7,3.3,4.3,6.3,7.8,5.3c1.3-0.3,2.3-1.5,2.5-2.8c0.2-1.4-0.5-3.1-2-3.4c-0.8-0.2-1.6,0.2-2,0.9c-0.2,0.4-0.2,0.8,0,1.1
	c0.2,0.4,0.8,0.6,1.1,0.1c-0.5-0.2-0.2-0.8,0.1-1c0.1,0,0.4-0.2,0.5-0.1S52,1.5,51.9,1.6s0,0.2,0,0.3c0.2,0.5,0,1.1-0.5,1.3
	c-0.3,0.1-0.7,0.1-1,0c-0.7-0.4-1-1.4-0.5-2.1C50,1,50,1,50,0.9c0.5-0.7,1.4-1.1,2.3-0.9c1.1,0.2,1.9,1,2.2,2
	c0.2-0.8,0.7-1.5,1.5-1.8c0.8-0.3,1.7-0.2,2.3,0.2c0.7,0.4,0.9,1.4,0.5,2.1c0,0,0,0,0,0c-0.3,0.3-0.7,0.5-1.1,0.4
	c-0.4-0.1-0.7-0.4-0.7-0.8c0-0.2,0.2-0.4,0.2-0.5s-0.3-0.2,0-0.2s0.9,0.8,0.4,1.1c0.4,0.2,0.9-0.1,1-0.5c0.1-0.4,0-0.8-0.3-1.1
	c-0.5-0.6-1.4-0.7-2.1-0.5c-0.6,0.2-1.1,0.7-1.3,1.4c-0.2,0.8-0.3,1.6-0.3,2.4c-0.2,0.9-0.8,1.8-1.7,2.3c1.3-0.5,2.6-1.1,3.8-1.8
	c1.2-0.7,2.6-0.9,4-0.7C61.5,4.3,62,4.6,62.5,5c0.4,0.4,0.7,1,1.1,1.4C64.1,7.3,65,7.8,66,7.8c0.6,0,1.1-0.4,1.2-1
	c0.1-0.5-0.1-1.4-0.8-1.2c0.4,0.3,0,0.9-0.3,1c-0.1,0-0.4,0.2-0.5,0.1s0.2-0.1,0.2-0.3s-0.2-0.3-0.2-0.5c0-0.2,0-0.3,0.2-0.5
	c0.2-0.3,0.6-0.4,0.9-0.2c0.7,0.2,1.1,1,0.8,1.7c0,0,0,0.1,0,0.1C67.4,7.8,66.7,8.2,65.9,8.2z"/>
<path d="M61,2.2l26.6,0.3L61,2.7c-0.1,0-0.3-0.1-0.3-0.3S60.8,2.2,61,2.2C60.9,2.2,60.9,2.2,61,2.2z"/>
<path d="M0,2.5l26.6-0.3c0.1,0,0.3,0.1,0.3,0.3c0,0.1-0.1,0.3-0.3,0.3c0,0,0,0,0,0l0,0L0,2.5z"/>
</svg>
