<?xml version="1.0" encoding="utf-8"?>
<!-- Generator: Adobe Illustrator 21.1.0, SVG Export Plug-In . SVG Version: 6.00 Build 0)  -->
<svg version="1.1" id="Layer_1" xmlns="http://www.w3.org/2000/svg" xmlns:xlink="http://www.w3.org/1999/xlink" x="0px" y="0px"
	 viewBox="0 0 87.6 9.9" style="enable-background:new 0 0 87.6 9.9;" xml:space="preserve">
<title>kerawang 2</title>
<path d="M65.9,1.7c-1.1,0.1-2.2,0.6-2.8,1.6c0-0.8-0.5-1.5-1.3-1.7c-0.7-0.2-1.5,0.2-1.7,0.9c-0.1,0.2-0.1,0.5,0,0.7
	c0.1,0.2,0.1,0.2,0,0.4s-0.2,0.1,0.1,0.1c0.3,0,0.6-0.2,0.7-0.5c0.1-0.3-0.1-0.7-0.5-0.6C60.8,2,61.4,1.8,62,2
	c0.6,0.3,0.9,0.9,0.8,1.5c-0.1,1.5-1.9,2-3.1,1.9c-0.7,0-1.4-0.2-2.1-0.5c-0.7-0.3-1.3-0.7-1.9-1.1c-1.2-0.7-2.5-1.1-3.9-1.2
	c-1.4-0.2-2.9,0.1-4.1,0.7c0.4-0.8,0.4-1.7-0.1-2.5c-0.4-0.7-1.3-1.1-2.1-0.8c-0.7,0.2-1.2,1-1,1.7c0,0,0,0.1,0,0.1
	c0.1,0.4,0.5,0.6,0.9,0.6c0.4,0,0.5-0.2,0.7-0.6c0-0.1,0.1-0.2,0.2-0.2c0.1,0,0.1,0,0.2,0c0.1-0.1-0.2-0.3-0.3-0.3
	c-0.4-0.2-1,0-1,0.5c-0.3-0.2-0.4-0.7-0.2-1c0.2-0.3,0.5-0.5,0.9-0.6c0.8-0.1,1.6,0.5,1.7,1.3c0,0,0,0,0,0c0.1,0.8-0.2,1.7-0.8,2.2
	c-0.7,0.5-1.3,1.2-1.8,1.9c-0.4,0.7-0.8,1.4-1,2.2c-0.1,0.4-0.1,0.8-0.2,1.2c0,0.1,0,0.3,0.1,0.4c0.1,0.1,0.2,0,0.3-0.1c0,0,0,0,0,0
	c0.1-0.2,0.2-0.4,0.3-0.5c0.2-0.4,0.5-0.8,0.8-1.1c0.9-1.1,2.1-2,3.5-2.3c0,0.3,0.2,0.6,0.5,0.6c0.1,0,0.2,0,0.3-0.1
	c0.1,0,0.2-0.1,0.3-0.1c0.1,0,0.2,0.1,0.3,0.2c0.2-0.1-0.2-0.7-0.3-0.8c-0.3-0.2-0.6-0.3-1-0.3c-2,0.2-3.5,1.8-4.6,3.4
	c0.6-3.3,4.2-6.3,7.7-5.3c1.3,0.3,2.3,1.5,2.5,2.8c0.2,1.4-0.5,3.1-2,3.4c-0.8,0.2-1.6-0.2-2-0.9c-0.2-0.4-0.2-0.8,0-1.1
	c0.2-0.4,0.8-0.6,1.1-0.1c-0.5,0.2-0.2,0.8,0.1,1c0.1,0,0.4,0.2,0.5,0.1s-0.1-0.1-0.1-0.1s0-0.2,0-0.3c0.2-0.5,0-1.1-0.6-1.3
	c-0.3-0.1-0.5-0.1-0.8,0c-0.7,0.4-1,1.4-0.5,2.1c0,0,0,0.1,0.1,0.1c0.5,0.7,1.4,1.1,2.3,0.9c1.1-0.2,1.9-1,2.2-2
	c0.2,0.8,0.7,1.5,1.5,1.8c0.8,0.3,1.7,0.2,2.3-0.3C59.2,9,59.4,8,58.9,7.3c0,0,0,0,0,0c-0.3-0.3-0.7-0.5-1.1-0.4
	c-0.4,0.1-0.7,0.4-0.7,0.8c0,0.2,0.2,0.4,0.2,0.5s-0.3,0.2,0,0.2s0.9-0.8,0.4-1.1c0.4-0.2,0.9,0.1,1,0.5c0.1,0.4,0,0.8-0.3,1.1
	c-0.5,0.6-1.4,0.7-2.1,0.5c-0.6-0.2-1.1-0.7-1.3-1.4c-0.2-0.8-0.3-1.6-0.3-2.4c-0.2-0.9-0.8-1.8-1.7-2.3c1.3,0.5,2.6,1.1,3.8,1.8
	c1.2,0.7,2.6,0.9,4,0.7c0.6-0.1,1.2-0.5,1.6-0.9c0.4-0.4,0.7-1,1.1-1.4C64.1,2.6,65,2.1,66,2.1c0.6,0,1.1,0.4,1.2,1
	c0.1,0.5-0.1,1.4-0.8,1.2c0.4-0.3,0-0.9-0.3-1c-0.1,0-0.4-0.2-0.5-0.1s0.2,0.1,0.2,0.3S65.8,3.8,65.8,4c0,0.2,0,0.3,0.2,0.5
	c0.2,0.3,0.6,0.4,0.9,0.3c0.7-0.2,1.1-1,0.9-1.7c0-0.1-0.1-0.1-0.1-0.2C67.4,2.2,66.7,1.7,65.9,1.7z"/>
<path d="M21.6,1.7c1.1,0.1,2.2,0.6,2.8,1.6c0-0.8,0.5-1.5,1.3-1.7c0.7-0.2,1.5,0.2,1.7,0.9c0.1,0.2,0.1,0.5-0.1,0.7
	c-0.1,0.2-0.1,0.2,0,0.4s0.1,0.1-0.1,0.1c-0.3,0-0.6-0.2-0.6-0.5c-0.1-0.3,0.1-0.7,0.5-0.6C26.8,2,26.2,1.8,25.6,2
	c-0.6,0.3-0.9,0.9-0.8,1.5c0.1,1.4,1.9,2,3.1,1.9c0.7,0,1.4-0.2,2.1-0.5c0.7-0.3,1.3-0.7,1.9-1.1c1.2-0.7,2.5-1.1,3.9-1.2
	c1.4-0.2,2.9,0.1,4.1,0.7c-0.4-0.8-0.4-1.7,0.1-2.5c0.4-0.7,1.3-1.1,2.1-0.8c0.7,0.2,1.2,1,1,1.7c0,0,0,0.1,0,0.1
	c-0.1,0.4-0.5,0.6-0.9,0.6c-0.4,0-0.5-0.2-0.7-0.6c0-0.1-0.1-0.2-0.2-0.2c-0.1,0-0.1,0-0.2,0c-0.1-0.1,0.2-0.3,0.3-0.3
	c0.4-0.2,1,0,1,0.5c0.3-0.2,0.4-0.7,0.2-1c-0.2-0.3-0.5-0.5-0.9-0.6c-0.8-0.1-1.6,0.5-1.7,1.3c0,0,0,0,0,0c-0.1,0.8,0.2,1.7,0.8,2.2
	c0.7,0.5,1.3,1.2,1.8,1.9c0.4,0.7,0.8,1.4,1,2.2C43.9,8.4,44,8.8,44,9.2c0,0.1,0,0.3-0.1,0.4c-0.1,0.1-0.2,0-0.3-0.1c0,0,0,0,0,0
	c-0.1-0.2-0.2-0.4-0.3-0.5c-0.2-0.4-0.5-0.8-0.8-1.1C41.6,6.8,40.4,6,39,5.6c0,0.3-0.2,0.6-0.5,0.6c-0.1,0-0.2,0-0.3-0.1
	c-0.1,0-0.2-0.1-0.3-0.1c-0.1,0-0.2,0.1-0.3,0.2c-0.2-0.1,0.2-0.7,0.3-0.8c0.3-0.2,0.6-0.3,1-0.3c2,0.2,3.5,1.8,4.6,3.4
	c-0.7-3.4-4.3-6.3-7.8-5.3c-1.3,0.3-2.3,1.5-2.5,2.8c-0.2,1.4,0.5,3.1,2,3.4c0.8,0.2,1.6-0.2,2-0.9c0.2-0.4,0.2-0.8,0-1.1
	c-0.2-0.4-0.8-0.6-1.1-0.1c0.5,0.2,0.2,0.8-0.1,1c-0.1,0-0.4,0.2-0.5,0.1s0.1-0.1,0.1-0.1s0-0.2,0-0.3c-0.2-0.5,0-1.1,0.5-1.3
	c0.3-0.1,0.6-0.1,0.9,0c0.7,0.4,1,1.4,0.5,2.1c0,0,0,0.1-0.1,0.1C37,9.7,36.1,10,35.2,9.9c-1.1-0.2-1.9-1-2.2-2
	c-0.2,0.8-0.7,1.5-1.5,1.8c-0.8,0.3-1.7,0.2-2.4-0.3c-0.7-0.4-1-1.4-0.5-2.1c0,0,0,0,0,0c0.3-0.3,0.7-0.5,1.1-0.4
	c0.4,0.1,0.7,0.4,0.7,0.8c0,0.2-0.2,0.4-0.2,0.5s0.3,0.2,0,0.2s-0.9-0.8-0.4-1.1c-0.4-0.2-0.9,0.1-1,0.5c-0.1,0.4,0,0.8,0.3,1.1
	c0.5,0.6,1.4,0.7,2.1,0.5c0.6-0.2,1.1-0.7,1.3-1.4c0.2-0.8,0.3-1.6,0.3-2.4c0.2-0.9,0.8-1.8,1.7-2.3c-1.3,0.5-2.6,1.1-3.8,1.8
	c-1.2,0.7-2.6,0.9-4,0.7c-0.6-0.1-1.2-0.5-1.6-0.9c-0.4-0.4-0.7-1-1.1-1.4c-0.6-0.8-1.5-1.3-2.5-1.3c-0.6,0-1.1,0.4-1.2,1
	c-0.1,0.5,0.1,1.4,0.8,1.2c-0.4-0.3,0-0.9,0.3-1c0.1,0,0.4-0.2,0.5-0.1s-0.2,0.1-0.2,0.3s0.1,0.3,0.2,0.5c0,0.2,0,0.3-0.1,0.5
	c-0.2,0.3-0.6,0.4-0.9,0.3c-0.7-0.2-1.1-1-0.8-1.7c0,0,0-0.1,0-0.1C20.2,2.2,20.8,1.7,21.6,1.7z"/>
<path d="M26.6,7.6L0,7.4l26.6-0.3c0.1,0,0.3,0.1,0.3,0.3C26.9,7.5,26.8,7.6,26.6,7.6C26.6,7.6,26.6,7.6,26.6,7.6z"/>
<path d="M87.6,7.4L61,7.6c-0.1,0-0.3-0.1-0.3-0.3c0-0.1,0.1-0.3,0.3-0.3c0,0,0,0,0,0l0,0L87.6,7.4z"/>
</svg>
