<?xml version="1.0" encoding="utf-8"?>
<!-- Generator: Adobe Illustrator 21.1.0, SVG Export Plug-In . SVG Version: 6.00 Build 0)  -->
<svg version="1.1" id="Layer_1" xmlns="http://www.w3.org/2000/svg" xmlns:xlink="http://www.w3.org/1999/xlink" x="0px" y="0px"
	 viewBox="0 0 87.6 10.6" style="enable-background:new 0 0 87.6 10.6;" xml:space="preserve">
<title>kerawang 1</title>
<g>
	<path d="M28.3,5.6c0,0.8-0.2,1.2-0.6,1.2c-0.3,0-0.6-0.2-0.8-0.7C26.9,6,26.8,5.6,26.8,5H26c0,0.6-0.1,1-0.2,1.3
		c-0.1,0.4-0.3,0.5-0.6,0.5c-0.3,0-0.6-0.2-0.8-0.6c-0.1-0.2-0.1-0.4-0.2-0.6L24.2,5h-0.8l0.3,1c0,0.2,0.1,0.5,0.1,0.8
		c0,0.4-0.1,0.8-0.3,1.1c-0.3,0.5-0.6,0.8-1,0.9C22.2,9,21.9,9,21.6,9c-0.2,0-0.5,0-0.8-0.1c-0.4-0.1-0.7-0.4-0.7-1
		c0-0.6,0.2-1.3,0.5-1.9h-0.8c-0.3,0.5-0.5,1.2-0.5,1.9c0,1,0.4,1.6,1.2,1.8c0.3,0.1,0.7,0.1,1,0.1c0.4,0,0.6,0,0.9-0.1
		c0.6-0.2,1-0.5,1.4-1c0.2-0.3,0.4-0.7,0.5-1.3c0.1,0.2,0.4,0.3,0.8,0.3c0.2,0,0.4,0,0.5-0.1c0.3-0.1,0.5-0.4,0.6-0.8
		c0.1,0.4,0.3,0.6,0.7,0.9c0.1,0.1,0.3,0.1,0.5,0.1c0.1,0,0.2,0,0.3,0c0.3-0.1,0.6-0.2,0.8-0.5c0.3-0.3,0.4-0.8,0.4-1.4V4.3h-0.8
		V5.6z"/>
	<path d="M32.8,5c-0.2-0.2-0.4-0.2-0.7-0.2c-0.4,0-0.8,0.2-1.1,0.5c-0.3,0.3-0.4,0.6-0.4,1c0,0.4,0.2,0.8,0.5,1
		c0.1,0.1,0.4,0.2,0.8,0.3c0.1,0,0.4,0,0.7,0c-0.2,0.4-0.5,0.8-1,1.1C31.3,8.9,30.6,9,29.5,9v0.8c1.1,0,1.9-0.1,2.5-0.4
		c0.3-0.1,0.6-0.3,0.8-0.6c0.5-0.5,0.8-1.2,0.8-2.1c0-0.2,0-0.5-0.1-0.8C33.4,5.6,33.2,5.3,32.8,5z M31.7,6.6
		c-0.2-0.1-0.2-0.3-0.2-0.4c0-0.1,0-0.2,0.1-0.3c0.1-0.2,0.3-0.3,0.5-0.3c0.1,0,0.2,0,0.3,0.1c0.3,0.2,0.4,0.5,0.4,1.1
		C32.2,6.8,31.9,6.8,31.7,6.6z"/>
	<path d="M44.7,6c0,0.3-0.1,0.5-0.2,0.7c-0.1,0.1-0.3,0.2-0.6,0.2h-0.2h-0.2h-0.2c-0.3,0-0.6-0.1-0.8-0.2c-0.2-0.1-0.3-0.2-0.4-0.3
		c0.3-0.2,0.5-0.5,0.7-0.8c0.1-0.1,0.1-0.2,0.1-0.4c0-0.1,0-0.2-0.1-0.3c0-0.2-0.2-0.3-0.5-0.5c-0.3-0.1-0.6-0.2-0.9-0.2
		c-0.4,0-0.7,0.1-0.9,0.2C40.2,4.5,40,4.7,40,4.9c0,0.1-0.1,0.2-0.1,0.3c0,0.1,0,0.3,0.1,0.4c0.2,0.3,0.4,0.5,0.7,0.8
		c-0.1,0.1-0.3,0.2-0.4,0.3c-0.2,0.1-0.4,0.2-0.8,0.2h-0.2h-0.2H39c-0.3,0-0.5-0.1-0.6-0.2C38.2,6.4,38,6.1,38,5.8
		c0-0.1-0.1-0.3-0.1-0.6h-0.8c0.2,0.4,0.2,0.8,0.2,1.2c0,0.2,0,0.4,0,0.6c-0.1,0.6-0.5,1.1-1.1,1.5C35.5,8.9,34.8,9,33.9,9v0.8
		c0.9,0,1.8-0.2,2.7-0.7c0.7-0.4,1.2-1,1.4-1.8c0.1,0.2,0.4,0.3,0.8,0.3h0.4h0.2h0.3c0.6,0,1.2-0.3,1.8-0.8c0.6,0.5,1.2,0.8,1.8,0.8
		h0.3h0.2h0.4c0.5,0,0.8-0.1,1-0.4c0.3-0.3,0.4-0.7,0.4-1.2V0.8h-0.8V6z M41.4,5.8C41.1,5.5,41,5.3,41,5.2c0-0.1,0.1-0.2,0.2-0.2
		c0.1,0,0.2,0,0.2,0c0.1,0,0.2,0,0.2,0c0.1,0,0.2,0.1,0.2,0.2C41.9,5.3,41.7,5.5,41.4,5.8z"/>
	<rect x="47.2" y="0.8" width="0.8" height="6.9"/>
	<rect x="50.4" y="3" width="0.7" height="0.7"/>
	<rect x="51.5" y="3" width="0.7" height="0.7"/>
	<rect x="59.4" y="8.3" width="0.7" height="0.7"/>
	<rect x="60.5" y="8.3" width="0.7" height="0.7"/>
	<path d="M62.8,6c0,0.3-0.1,0.5-0.2,0.7c-0.1,0.1-0.3,0.2-0.6,0.2h-0.2h-0.2h-0.1c-0.3,0-0.5-0.1-0.6-0.2c-0.1-0.1-0.2-0.4-0.2-0.7
		V5h-0.8v1c0,0.3-0.1,0.5-0.2,0.7c-0.1,0.1-0.3,0.2-0.6,0.2v0h-0.3c-0.3,0-0.5-0.1-0.6-0.2c-0.2-0.2-0.2-0.3-0.2-0.5
		c-0.1-0.5-0.4-0.9-0.9-1.1c-0.2-0.1-0.4-0.1-0.6-0.1c-0.3,0-0.6,0.1-0.8,0.2c-0.4,0.2-0.6,0.6-0.7,1.2c0,0.1-0.1,0.3-0.2,0.4
		c-0.1,0.1-0.3,0.2-0.4,0.2h-0.3h-0.2h-0.2c-0.3,0-0.5-0.1-0.6-0.2c-0.2-0.2-0.3-0.5-0.3-0.8c-0.1-0.5-0.2-1-0.2-1.5h-0.8
		c0,0.1,0,0.2,0,0.4c-0.4,0-0.8,0.2-1.2,0.4c-0.6,0.4-0.9,0.8-0.9,1.3c0,0.5,0.3,0.8,0.8,0.9c0.2,0,0.3,0.1,0.5,0.1
		c0.5,0,0.9-0.1,1.3-0.3c0.1,0.2,0.2,0.3,0.4,0.4c0.2,0.2,0.5,0.2,0.7,0.2h0.4h0.2h0.5c0.3,0,0.6-0.1,0.7-0.2
		c0.3,0.3,0.8,0.4,1.4,0.4c0.4,0,0.8-0.2,1-0.5c0.1,0.1,0.4,0.2,0.9,0.2h0.4v0h0.4c0.4,0,0.8-0.1,1-0.4c0.2,0.3,0.6,0.4,1,0.4h0.3
		h0.2h0.4c0.5,0,0.8-0.1,1-0.4c0.3-0.3,0.4-0.7,0.4-1.2V0.8h-0.8V6z M50.7,6.6c-0.3-0.1-0.4-0.2-0.4-0.3c0-0.2,0.2-0.4,0.5-0.7
		c0.2-0.2,0.5-0.3,0.9-0.3c0,0.3,0.1,0.5,0.1,0.7c0,0.1,0.1,0.3,0.1,0.4C51.3,6.6,50.9,6.7,50.7,6.6z M56.8,7
		c-0.1,0.1-0.2,0.1-0.3,0.1c-0.5,0-0.8-0.1-1-0.3c0-0.1,0.1-0.2,0.1-0.3c0-0.3,0.1-0.5,0.3-0.6c0.1-0.1,0.3-0.1,0.4-0.1
		c0.1,0,0.2,0,0.3,0.1C56.8,5.9,57,6,57,6.3c0,0.1,0,0.1,0,0.2C57,6.7,57,6.8,56.8,7z"/>
	<path d="M68.1,6c-0.1-0.4-0.3-0.8-0.7-1c-0.2-0.2-0.4-0.2-0.7-0.2c-0.4,0-0.8,0.2-1.1,0.5c-0.3,0.3-0.4,0.6-0.4,1
		c0,0.4,0.2,0.8,0.5,1c0.1,0.1,0.4,0.2,0.8,0.3c0.1,0,0.4,0,0.7,0c-0.2,0.4-0.5,0.8-1,1.1C65.9,8.9,65.2,9,64.1,9v0.8
		c1.1,0,1.9-0.1,2.5-0.4c0.3-0.1,0.6-0.3,0.8-0.6c0.5-0.5,0.8-1.2,0.8-2.1C68.2,6.6,68.1,6.4,68.1,6z M66.3,6.6
		c-0.2-0.1-0.2-0.3-0.2-0.4c0-0.1,0-0.2,0.1-0.3c0.1-0.2,0.3-0.3,0.5-0.3c0.1,0,0.2,0,0.3,0.1c0.3,0.2,0.4,0.5,0.4,1.1
		C66.8,6.8,66.4,6.8,66.3,6.6z"/>
</g>
<text transform="matrix(1 0 0 1 63.1172 -7.113)" style="font-family:'Raleway-Regular'; font-size:9.0601px;"> </text>
<text transform="matrix(1 0 0 1 65.416 -7.113)" style="font-family:'Raleway-Regular'; font-size:9.0601px;"> </text>
</svg>
